<?xml version="1.0" encoding="iso-8859-1"?>
<svg xmlns="http://www.w3.org/2000/svg" width="22" height="22" viewBox="0 0 22 22" fill="none">
<g id="HomeOutlined" clip-path="url(#clip0_2_145)">
<path id="Vector" d="M21.6685 10.8281L12.181 1.34553L11.5451 0.70959C11.4002 0.565649 11.2042 0.484863 11 0.484863C10.7958 0.484863 10.5998 0.565649 10.4549 0.70959L0.331475 10.8281C0.183002 10.976 0.0656619 11.1522 -0.0136201 11.3461C-0.092902 11.5401 -0.132519 11.748 -0.130132 11.9576C-0.120311 12.8219 0.599109 13.5118 1.46339 13.5118H2.50692V21.5089H19.4931V13.5118H20.5587C20.9786 13.5118 21.3739 13.3473 21.671 13.0502C21.8173 12.9044 21.9332 12.731 22.012 12.5401C22.0908 12.3492 22.131 12.1445 22.1301 11.9379C22.1301 11.5205 21.9656 11.1252 21.6685 10.8281ZM12.375 19.7411H9.625V14.7321H12.375V19.7411ZM17.7252 11.744V19.7411H13.9464V14.1428C13.9464 13.6002 13.5069 13.1607 12.9643 13.1607H9.03572C8.49308 13.1607 8.05357 13.6002 8.05357 14.1428V19.7411H4.27478V11.744H1.91764L11.0025 2.66651L11.5696 3.2337L20.0848 11.744H17.7252Z" fill="#30A2FF"/>
</g>
<defs>
<clipPath id="clip0_2_145">
<rect width="22" height="22" fill="white"/>
</clipPath>
</defs>
</svg>